<svg width="135mm" height="85mm" viewBox="0 0 135000 85000"><g xmlns="http://www.w3.org/2000/svg" fill="#d32f2f" fill-rule="nonzero" stroke="none" stroke-width="none" stroke-linecap="butt" stroke-linejoin="miter" stroke-miterlimit="10" stroke-dasharray="" stroke-dashoffset="0" font-family="none" font-weight="none" font-size="none" text-anchor="none" style="mix-blend-mode: normal"><path d="M110400,34710h-2800v580h2800z" stroke-width="0"/><path d="M110400,42710h-2800v580h2800z" stroke-width="0"/><path d="M112290,40400v-2800h-580v2800z" stroke-width="0"/><path d="M105400,34710h-2800v580h2800z" stroke-width="0"/><path d="M105400,41710h-2800v580h2800z" stroke-width="0"/><path d="M76400,44710h-2800v580h2800z" stroke-width="0"/><path d="M64400,35710h-2800v580h2800z" stroke-width="0"/><path d="M64400,43710h-2800v580h2800z" stroke-width="0"/><path d="M77400,31710h-2800v580h2800z" stroke-width="0"/><path d="M36400,35710h-2800v580h2800z" stroke-width="0"/><path d="M36400,43710h-2800v580h2800z" stroke-width="0"/><path d="M32290,41400v-2800h-580v2800z" stroke-width="0"/><path d="M77290,41400v-2800h-580v2800z" stroke-width="0"/><path d="M61290,41400v-2800h-580v2800z" stroke-width="0"/><path d="M97000,63126.5c69.86402,0 126.5,-56.63598 126.5,-126.5v0c0,-69.86402 -56.63598,-126.5 -126.5,-126.5v0c-69.86402,0 -126.5,56.63598 -126.5,126.5v0c0,69.86402 56.63598,126.5 126.5,126.5zM96879.99156,62959.99719c-22.09294,66.27883 13.7268,137.91831 80.00562,160.01125v0c66.27883,22.09294 137.91831,-13.7268 160.01125,-80.00562l7000,-21000c22.09294,-66.27883 -13.7268,-137.91831 -80.00562,-160.01125v0c-66.27883,-22.09294 -137.91831,13.7268 -160.01125,80.00562zM104000,42126.5c69.86402,0 126.5,-56.63598 126.5,-126.5v0c0,-69.86402 -56.63598,-126.5 -126.5,-126.5v0c-69.86402,0 -126.5,56.63598 -126.5,126.5v0c0,69.86402 56.63598,126.5 126.5,126.5z" stroke-width="1"/><path d="M109000,67126.5c69.86402,0 126.5,-56.63598 126.5,-126.5v0c0,-69.86402 -56.63598,-126.5 -126.5,-126.5v0c-69.86402,0 -126.5,56.63598 -126.5,126.5v0c0,69.86402 56.63598,126.5 126.5,126.5zM108873.5,67000c0,69.86402 56.63598,126.5 126.5,126.5v0c69.86402,0 126.5,-56.63598 126.5,-126.5v-24000c0,-69.86402 -56.63598,-126.5 -126.5,-126.5v0c-69.86402,0 -126.5,56.63598 -126.5,126.5zM109000,43126.5c69.86402,0 126.5,-56.63598 126.5,-126.5v0c0,-69.86402 -56.63598,-126.5 -126.5,-126.5v0c-69.86402,0 -126.5,56.63598 -126.5,126.5v0c0,69.86402 56.63598,126.5 126.5,126.5z" stroke-width="1"/><path d="M128000,45126.5c69.86402,0 126.5,-56.63598 126.5,-126.5v0c0,-69.86402 -56.63598,-126.5 -126.5,-126.5v0c-69.86402,0 -126.5,56.63598 -126.5,126.5v0c0,69.86402 56.63598,126.5 126.5,126.5zM127955.58288,45118.44564c65.41572,24.5309 138.33186,-8.6128 162.86276,-74.02853v0c24.5309,-65.41572 -8.6128,-138.33186 -74.02853,-162.86276l-16000,-6000c-65.41572,-24.5309 -138.33186,8.6128 -162.86276,74.02853v0c-24.5309,65.41572 8.6128,138.33186 74.02853,162.86276zM112000,39126.5c69.86402,0 126.5,-56.63598 126.5,-126.5v0c0,-69.86402 -56.63598,-126.5 -126.5,-126.5v0c-69.86402,0 -126.5,56.63598 -126.5,126.5v0c0,69.86402 56.63598,126.5 126.5,126.5z" stroke-width="1"/><path d="M110000,14126.5c69.86402,0 126.5,-56.63598 126.5,-126.5v0c0,-69.86402 -56.63598,-126.5 -126.5,-126.5v0c-69.86402,0 -126.5,56.63598 -126.5,126.5v0c0,69.86402 56.63598,126.5 126.5,126.5zM110126.35682,14006.01699c3.32309,-69.78494 -50.55488,-129.05072 -120.33983,-132.37381v0c-69.78494,-3.32309 -129.05072,50.55488 -132.37381,120.33983l-1000,21000c-3.32309,69.78494 50.55488,129.05072 120.33983,132.37381v0c69.78494,3.32309 129.05072,-50.55488 132.37381,-120.33983zM109000,35126.5c69.86402,0 126.5,-56.63598 126.5,-126.5v0c0,-69.86402 -56.63598,-126.5 -126.5,-126.5v0c-69.86402,0 -126.5,56.63598 -126.5,126.5v0c0,69.86402 56.63598,126.5 126.5,126.5z" stroke-width="1"/><path d="M93690,40126.5c69.86402,0 126.5,-56.63598 126.5,-126.5v0c0,-69.86402 -56.63598,-126.5 -126.5,-126.5v0c-69.86402,0 -126.5,56.63598 -126.5,126.5v0c0,69.86402 56.63598,126.5 126.5,126.5zM93816.47299,39997.38622c-1.44355,-69.84911 -59.23766,-125.30277 -129.08677,-123.85922v0c-69.84911,1.44355 -125.30277,59.23766 -123.85922,129.08677l310,15000c1.44355,69.84911 59.23766,125.30277 129.08677,123.85922v0c69.84911,-1.44355 125.30277,-59.23766 123.85922,-129.08677zM94000,55126.5c69.86402,0 126.5,-56.63598 126.5,-126.5v0c0,-69.86402 -56.63598,-126.5 -126.5,-126.5v0c-69.86402,0 -126.5,56.63598 -126.5,126.5v0c0,69.86402 56.63598,126.5 126.5,126.5z" stroke-width="1"/><path d="M90000,55126.5c69.86402,0 126.5,-56.63598 126.5,-126.5v0c0,-69.86402 -56.63598,-126.5 -126.5,-126.5v0c-69.86402,0 -126.5,56.63598 -126.5,126.5v0c0,69.86402 56.63598,126.5 126.5,126.5zM89873.5,55000c0,69.86402 56.63598,126.5 126.5,126.5v0c69.86402,0 126.5,-56.63598 126.5,-126.5v-15000c0,-69.86402 -56.63598,-126.5 -126.5,-126.5v0c-69.86402,0 -126.5,56.63598 -126.5,126.5zM90000,40126.5c69.86402,0 126.5,-56.63598 126.5,-126.5v0c0,-69.86402 -56.63598,-126.5 -126.5,-126.5v0c-69.86402,0 -126.5,56.63598 -126.5,126.5v0c0,69.86402 56.63598,126.5 126.5,126.5z" stroke-width="1"/><path d="M86310,40126.5c69.86402,0 126.5,-56.63598 126.5,-126.5v0c0,-69.86402 -56.63598,-126.5 -126.5,-126.5v0c-69.86402,0 -126.5,56.63598 -126.5,126.5v0c0,69.86402 56.63598,126.5 126.5,126.5zM86436.47299,40002.61378c1.44355,-69.84911 -54.01011,-127.64322 -123.85922,-129.08677v0c-69.84911,-1.44355 -127.64322,54.01011 -129.08677,123.85922l-310,15000c-1.44355,69.84911 54.01011,127.64322 123.85922,129.08677v0c69.84911,1.44355 127.64322,-54.01011 129.08677,-123.85922zM86000,55126.5c69.86402,0 126.5,-56.63598 126.5,-126.5v0c0,-69.86402 -56.63598,-126.5 -126.5,-126.5v0c-69.86402,0 -126.5,56.63598 -126.5,126.5v0c0,69.86402 56.63598,126.5 126.5,126.5z" stroke-width="1"/><path d="M83000,50126.5c69.86402,0 126.5,-56.63598 126.5,-126.5v0c0,-69.86402 -56.63598,-126.5 -126.5,-126.5v0c-69.86402,0 -126.5,56.63598 -126.5,126.5v0c0,69.86402 56.63598,126.5 126.5,126.5zM82932.95513,50107.27179c59.24457,37.02786 137.28879,19.01765 174.31665,-40.22692v0c37.02786,-59.24457 19.01765,-137.28879 -40.22692,-174.31665l-8000,-5000c-59.24457,-37.02786 -137.28879,-19.01765 -174.31665,40.22692v0c-37.02786,59.24457 -19.01765,137.28879 40.22692,174.31665zM75000,45126.5c69.86402,0 126.5,-56.63598 126.5,-126.5v0c0,-69.86402 -56.63598,-126.5 -126.5,-126.5v0c-69.86402,0 -126.5,56.63598 -126.5,126.5v0c0,69.86402 56.63598,126.5 126.5,126.5z" stroke-width="1"/><path d="M91000,29126.5c69.86402,0 126.5,-56.63598 126.5,-126.5v0c0,-69.86402 -56.63598,-126.5 -126.5,-126.5v0c-69.86402,0 -126.5,56.63598 -126.5,126.5v0c0,69.86402 56.63598,126.5 126.5,126.5zM91078.15443,29099.46927c54.93536,-43.1635 64.47834,-122.68834 21.31484,-177.6237v0c-43.1635,-54.93536 -122.68834,-64.47834 -177.6237,-21.31484l-14000,11000c-54.93536,43.1635 -64.47834,122.68834 -21.31484,177.6237v0c43.1635,54.93536 122.68834,64.47834 177.6237,21.31484zM77000,40126.5c69.86402,0 126.5,-56.63598 126.5,-126.5v0c0,-69.86402 -56.63598,-126.5 -126.5,-126.5v0c-69.86402,0 -126.5,56.63598 -126.5,126.5v0c0,69.86402 56.63598,126.5 126.5,126.5z" stroke-width="1"/><path d="M83000,26126.5c69.86402,0 126.5,-56.63598 126.5,-126.5v0c0,-69.86402 -56.63598,-126.5 -126.5,-126.5v0c-69.86402,0 -126.5,56.63598 -126.5,126.5v0c0,69.86402 56.63598,126.5 126.5,126.5zM83082.32511,26096.04596c53.04472,-45.4669 59.18775,-125.32635 13.72085,-178.37107v0c-45.4669,-53.04472 -125.32635,-59.18775 -178.37107,-13.72085l-7000,6000c-53.04472,45.4669 -59.18775,125.32635 -13.72085,178.37107v0c45.4669,53.04472 125.32635,59.18775 178.37107,13.72085zM76000,32126.5c69.86402,0 126.5,-56.63598 126.5,-126.5v0c0,-69.86402 -56.63598,-126.5 -126.5,-126.5v0c-69.86402,0 -126.5,56.63598 -126.5,126.5v0c0,69.86402 56.63598,126.5 126.5,126.5z" stroke-width="1"/><path d="M74000,9126.5c69.86402,0 126.5,-56.63598 126.5,-126.5v0c0,-69.86402 -56.63598,-126.5 -126.5,-126.5v0c-69.86402,0 -126.5,56.63598 -126.5,126.5v0c0,69.86402 56.63598,126.5 126.5,126.5zM74126.4498,9003.56359c1.96811,-69.83629 -53.04992,-128.04527 -122.88621,-130.01338v0c-69.83629,-1.96811 -128.04527,53.04992 -130.01338,122.88621l-310,11000c-1.96811,69.83629 53.04992,128.04527 122.88621,130.01338v0c69.83629,1.96811 128.04527,-53.04992 130.01338,-122.88621zM73690,20126.5c69.86402,0 126.5,-56.63598 126.5,-126.5v0c0,-69.86402 -56.63598,-126.5 -126.5,-126.5v0c-69.86402,0 -126.5,56.63598 -126.5,126.5v0c0,69.86402 56.63598,126.5 126.5,126.5z" stroke-width="1"/><path d="M70000,9126.5c69.86402,0 126.5,-56.63598 126.5,-126.5v0c0,-69.86402 -56.63598,-126.5 -126.5,-126.5v0c-69.86402,0 -126.5,56.63598 -126.5,126.5v0c0,69.86402 56.63598,126.5 126.5,126.5zM70126.5,9000c0,-69.86402 -56.63598,-126.5 -126.5,-126.5v0c-69.86402,0 -126.5,56.63598 -126.5,126.5v11000c0,69.86402 56.63598,126.5 126.5,126.5v0c69.86402,0 126.5,-56.63598 126.5,-126.5zM70000,20126.5c69.86402,0 126.5,-56.63598 126.5,-126.5v0c0,-69.86402 -56.63598,-126.5 -126.5,-126.5v0c-69.86402,0 -126.5,56.63598 -126.5,126.5v0c0,69.86402 56.63598,126.5 126.5,126.5z" stroke-width="1"/><path d="M66000,9126.5c69.86402,0 126.5,-56.63598 126.5,-126.5v0c0,-69.86402 -56.63598,-126.5 -126.5,-126.5v0c-69.86402,0 -126.5,56.63598 -126.5,126.5v0c0,69.86402 56.63598,126.5 126.5,126.5zM66126.4498,8996.43641c-1.96811,-69.83629 -60.17709,-124.85432 -130.01338,-122.88621v0c-69.83629,1.96811 -124.85432,60.17709 -122.88621,130.01338l310,11000c1.96811,69.83629 60.17709,124.85432 130.01338,122.88621v0c69.83629,-1.96811 124.85432,-60.17709 122.88621,-130.01338zM66310,20126.5c69.86402,0 126.5,-56.63598 126.5,-126.5v0c0,-69.86402 -56.63598,-126.5 -126.5,-126.5v0c-69.86402,0 -126.5,56.63598 -126.5,126.5v0c0,69.86402 56.63598,126.5 126.5,126.5z" stroke-width="1"/><path d="M59000,25126.5c69.86402,0 126.5,-56.63598 126.5,-126.5v0c0,-69.86402 -56.63598,-126.5 -126.5,-126.5v0c-69.86402,0 -126.5,56.63598 -126.5,126.5v0c0,69.86402 56.63598,126.5 126.5,126.5zM59118.88387,24956.7695c-23.87554,-65.65775 -96.45662,-99.52892 -162.11437,-75.65337v0c-65.65775,23.87554 -99.52892,96.45662 -75.65337,162.11437l4000,11000c23.87554,65.65775 96.45662,99.52892 162.11437,75.65337v0c65.65775,-23.87554 99.52892,-96.45662 75.65337,-162.11437zM63000,36126.5c69.86402,0 126.5,-56.63598 126.5,-126.5v0c0,-69.86402 -56.63598,-126.5 -126.5,-126.5v0c-69.86402,0 -126.5,56.63598 -126.5,126.5v0c0,69.86402 56.63598,126.5 126.5,126.5z" stroke-width="1"/><path d="M57000,55126.5c69.86402,0 126.5,-56.63598 126.5,-126.5v0c0,-69.86402 -56.63598,-126.5 -126.5,-126.5v0c-69.86402,0 -126.5,56.63598 -126.5,126.5v0c0,69.86402 56.63598,126.5 126.5,126.5zM56888.94621,54939.42521c-33.45454,61.33331 -10.85432,138.17405 50.479,171.62858v0c61.33331,33.45454 138.17405,10.85432 171.62858,-50.479l6000,-11000c33.45454,-61.33331 10.85432,-138.17405 -50.479,-171.62858v0c-61.33331,-33.45454 -138.17405,-10.85432 -171.62858,50.479zM63000,44126.5c69.86402,0 126.5,-56.63598 126.5,-126.5v0c0,-69.86402 -56.63598,-126.5 -126.5,-126.5v0c-69.86402,0 -126.5,56.63598 -126.5,126.5v0c0,69.86402 56.63598,126.5 126.5,126.5z" stroke-width="1"/><path d="M61000,40126.5c69.86402,0 126.5,-56.63598 126.5,-126.5v0c0,-69.86402 -56.63598,-126.5 -126.5,-126.5v0c-69.86402,0 -126.5,56.63598 -126.5,126.5v0c0,69.86402 56.63598,126.5 126.5,126.5zM61093.60242,40085.09311c46.99563,-51.69519 43.18588,-131.6999 -8.50931,-178.69553v0c-51.69519,-46.99563 -131.6999,-43.18588 -178.69553,8.50931l-10000,11000c-46.99563,51.69519 -43.18588,131.6999 8.50931,178.69553v0c51.69519,46.99563 131.6999,43.18588 178.69553,-8.50931zM51000,51126.5c69.86402,0 126.5,-56.63598 126.5,-126.5v0c0,-69.86402 -56.63598,-126.5 -126.5,-126.5v0c-69.86402,0 -126.5,56.63598 -126.5,126.5v0c0,69.86402 56.63598,126.5 126.5,126.5z" stroke-width="1"/><path d="M54000,31126.5c69.86402,0 126.5,-56.63598 126.5,-126.5v0c0,-69.86402 -56.63598,-126.5 -126.5,-126.5v0c-69.86402,0 -126.5,56.63598 -126.5,126.5v0c0,69.86402 56.63598,126.5 126.5,126.5zM54126.42503,31004.35464c2.405,-69.82261 -52.24777,-128.37466 -122.07039,-130.77967v0c-69.82261,-2.405 -128.37466,52.24777 -130.77967,122.07039l-310,9000c-2.405,69.82261 52.24777,128.37466 122.07039,130.77967v0c69.82261,2.405 128.37466,-52.24777 130.77967,-122.07039zM53690,40126.5c69.86402,0 126.5,-56.63598 126.5,-126.5v0c0,-69.86402 -56.63598,-126.5 -126.5,-126.5v0c-69.86402,0 -126.5,56.63598 -126.5,126.5v0c0,69.86402 56.63598,126.5 126.5,126.5z" stroke-width="1"/><path d="M50000,30126.5c69.86402,0 126.5,-56.63598 126.5,-126.5v0c0,-69.86402 -56.63598,-126.5 -126.5,-126.5v0c-69.86402,0 -126.5,56.63598 -126.5,126.5v0c0,69.86402 56.63598,126.5 126.5,126.5zM50126.5,30000c0,-69.86402 -56.63598,-126.5 -126.5,-126.5v0c-69.86402,0 -126.5,56.63598 -126.5,126.5v10000c0,69.86402 56.63598,126.5 126.5,126.5v0c69.86402,0 126.5,-56.63598 126.5,-126.5zM50000,40126.5c69.86402,0 126.5,-56.63598 126.5,-126.5v0c0,-69.86402 -56.63598,-126.5 -126.5,-126.5v0c-69.86402,0 -126.5,56.63598 -126.5,126.5v0c0,69.86402 56.63598,126.5 126.5,126.5z" stroke-width="1"/><path d="M46000,30126.5c69.86402,0 126.5,-56.63598 126.5,-126.5v0c0,-69.86402 -56.63598,-126.5 -126.5,-126.5v0c-69.86402,0 -126.5,56.63598 -126.5,126.5v0c0,69.86402 56.63598,126.5 126.5,126.5zM46126.43926,29996.08038c-2.16474,-69.83048 -60.5284,-124.68439 -130.35888,-122.51964v0c-69.83048,2.16474 -124.68439,60.5284 -122.51964,130.35888l310,10000c2.16474,69.83048 60.5284,124.68439 130.35888,122.51964v0c69.83048,-2.16474 124.68439,-60.5284 122.51964,-130.35888zM46310,40126.5c69.86402,0 126.5,-56.63598 126.5,-126.5v0c0,-69.86402 -56.63598,-126.5 -126.5,-126.5v0c-69.86402,0 -126.5,56.63598 -126.5,126.5v0c0,69.86402 56.63598,126.5 126.5,126.5z" stroke-width="1"/><path d="M39000,25126.5c69.86402,0 126.5,-56.63598 126.5,-126.5v0c0,-69.86402 -56.63598,-126.5 -126.5,-126.5v0c-69.86402,0 -126.5,56.63598 -126.5,126.5v0c0,69.86402 56.63598,126.5 126.5,126.5zM39118.88387,25043.2305c23.87554,-65.65775 -9.99562,-138.23882 -75.65337,-162.11437v0c-65.65775,-23.87554 -138.23882,9.99562 -162.11437,75.65337l-4000,11000c-23.87554,65.65775 9.99562,138.23882 75.65337,162.11437v0c65.65775,23.87554 138.23882,-9.99562 162.11437,-75.65337zM35000,36126.5c69.86402,0 126.5,-56.63598 126.5,-126.5v0c0,-69.86402 -56.63598,-126.5 -126.5,-126.5v0c-69.86402,0 -126.5,56.63598 -126.5,126.5v0c0,69.86402 56.63598,126.5 126.5,126.5z" stroke-width="1"/><path d="M39000,55126.5c69.86402,0 126.5,-56.63598 126.5,-126.5v0c0,-69.86402 -56.63598,-126.5 -126.5,-126.5v0c-69.86402,0 -126.5,56.63598 -126.5,126.5v0c0,69.86402 56.63598,126.5 126.5,126.5zM38881.11613,55043.2305c23.87554,65.65775 96.45662,99.52892 162.11437,75.65337v0c65.65775,-23.87554 99.52892,-96.45662 75.65337,-162.11437l-4000,-11000c-23.87554,-65.65775 -96.45662,-99.52892 -162.11437,-75.65337v0c-65.65775,23.87554 -99.52892,96.45662 -75.65337,162.11437zM35000,44126.5c69.86402,0 126.5,-56.63598 126.5,-126.5v0c0,-69.86402 -56.63598,-126.5 -126.5,-126.5v0c-69.86402,0 -126.5,56.63598 -126.5,126.5v0c0,69.86402 56.63598,126.5 126.5,126.5z" stroke-width="1"/><path d="M27000,59126.5c69.86402,0 126.5,-56.63598 126.5,-126.5v0c0,-69.86402 -56.63598,-126.5 -126.5,-126.5v0c-69.86402,0 -126.5,56.63598 -126.5,126.5v0c0,69.86402 56.63598,126.5 126.5,126.5zM26877.66507,58967.8066c-17.77993,67.56372 22.57781,136.74841 90.14153,154.52833v0c67.56372,17.77993 136.74841,-22.57781 154.52833,-90.14153l5000,-19000c17.77993,-67.56372 -22.57781,-136.74841 -90.14153,-154.52833v0c-67.56372,-17.77993 -136.74841,22.57781 -154.52833,90.14153zM32000,40126.5c69.86402,0 126.5,-56.63598 126.5,-126.5v0c0,-69.86402 -56.63598,-126.5 -126.5,-126.5v0c-69.86402,0 -126.5,56.63598 -126.5,126.5v0c0,69.86402 56.63598,126.5 126.5,126.5z" stroke-width="1"/><path d="M111000,39400v-800v0v800z" stroke-width="0"/><path d="M107290,40400v-2800h-580v2800z" stroke-width="0"/><path d="M102000,14126.5c69.86402,0 126.5,-56.63598 126.5,-126.5v0c0,-69.86402 -56.63598,-126.5 -126.5,-126.5v0c-69.86402,0 -126.5,56.63598 -126.5,126.5v0c0,69.86402 56.63598,126.5 126.5,126.5zM102124.04346,13975.19131c-13.70146,-68.50731 -80.34484,-112.93623 -148.85215,-99.23476v0c-68.50731,13.70146 -112.93623,80.34484 -99.23476,148.85215l5000,25000c13.70146,68.50731 80.34484,112.93623 148.85215,99.23476v0c68.50731,-13.70146 112.93623,-80.34484 99.23476,-148.85215zM107000,39126.5c69.86402,0 126.5,-56.63598 126.5,-126.5v0c0,-69.86402 -56.63598,-126.5 -126.5,-126.5v0c-69.86402,0 -126.5,56.63598 -126.5,126.5v0c0,69.86402 56.63598,126.5 126.5,126.5z" stroke-width="1"/><path d="M104000,35126.5c69.86402,0 126.5,-56.63598 126.5,-126.5v0c0,-69.86402 -56.63598,-126.5 -126.5,-126.5v0c-69.86402,0 -126.5,56.63598 -126.5,126.5v0c0,69.86402 56.63598,126.5 126.5,126.5zM103884.1061,35050.70358c28.00282,64.00644 102.59105,93.19314 166.59749,65.19032v0c64.00644,-28.00282 93.19314,-102.59105 65.19032,-166.59749l-7000,-16000c-28.00282,-64.00644 -102.59105,-93.19314 -166.59749,-65.19032v0c-64.00644,28.00282 -93.19314,102.59105 -65.19032,166.59749zM97000,19126.5c69.86402,0 126.5,-56.63598 126.5,-126.5v0c0,-69.86402 -56.63598,-126.5 -126.5,-126.5v0c-69.86402,0 -126.5,56.63598 -126.5,126.5v0c0,69.86402 56.63598,126.5 126.5,126.5z" stroke-width="1"/></g></svg>