<svg width="135mm" height="85mm" viewBox="0 0 135000 85000"><g xmlns="http://www.w3.org/2000/svg" fill="#303f9f" fill-rule="nonzero" stroke="none" stroke-width="1" stroke-linecap="butt" stroke-linejoin="miter" stroke-miterlimit="10" stroke-dasharray="" stroke-dashoffset="0" font-family="none" font-weight="none" font-size="none" text-anchor="none" style="mix-blend-mode: normal"><path d="M19300,20000c0,-386.59932 313.40068,-700 700,-700c386.59932,0 700,313.40068 700,700c0,386.59932 -313.40068,700 -700,700c-386.59932,0 -700,-313.40068 -700,-700z"/><path d="M19300,29000c0,-386.59932 313.40068,-700 700,-700c386.59932,0 700,313.40068 700,700c0,386.59932 -313.40068,700 -700,700c-386.59932,0 -700,-313.40068 -700,-700z"/><path d="M19300,39000c0,-386.59932 313.40068,-700 700,-700c386.59932,0 700,313.40068 700,700c0,386.59932 -313.40068,700 -700,700c-386.59932,0 -700,-313.40068 -700,-700z"/><path d="M19300,48000c0,-386.59932 313.40068,-700 700,-700c386.59932,0 700,313.40068 700,700c0,386.59932 -313.40068,700 -700,700c-386.59932,0 -700,-313.40068 -700,-700z"/><path d="M19300,59000c0,-386.59932 313.40068,-700 700,-700c386.59932,0 700,313.40068 700,700c0,386.59932 -313.40068,700 -700,700c-386.59932,0 -700,-313.40068 -700,-700z"/><path d="M119300,20000c0,-386.59932 313.40068,-700 700,-700c386.59932,0 700,313.40068 700,700c0,386.59932 -313.40068,700 -700,700c-386.59932,0 -700,-313.40068 -700,-700z"/><path d="M119300,40000c0,-386.59932 313.40068,-700 700,-700c386.59932,0 700,313.40068 700,700c0,386.59932 -313.40068,700 -700,700c-386.59932,0 -700,-313.40068 -700,-700z"/><path d="M119300,60000c0,-386.59932 313.40068,-700 700,-700c386.59932,0 700,313.40068 700,700c0,386.59932 -313.40068,700 -700,700c-386.59932,0 -700,-313.40068 -700,-700z"/></g></svg>