<svg width="135mm" height="85mm" viewBox="0 0 135000 85000"><g xmlns="http://www.w3.org/2000/svg" fill="#d32f2f" fill-rule="nonzero" stroke="none" stroke-width="1" stroke-linecap="butt" stroke-linejoin="miter" stroke-miterlimit="10" stroke-dasharray="" stroke-dashoffset="0" font-family="none" font-weight="none" font-size="none" text-anchor="none" style="mix-blend-mode: normal"><path d="M128700,45000c0,-386.59932 -313.40068,-700 -700,-700c-386.59932,0 -700,313.40068 -700,700c0,386.59932 313.40068,700 700,700c386.59932,0 700,-313.40068 700,-700z"/><path d="M97700,19000c0,-386.59932 -313.40068,-700 -700,-700c-386.59932,0 -700,313.40068 -700,700c0,386.59932 313.40068,700 700,700c386.59932,0 700,-313.40068 700,-700z"/><path d="M110700,14000c0,-386.59932 -313.40068,-700 -700,-700c-386.59932,0 -700,313.40068 -700,700c0,386.59932 313.40068,700 700,700c386.59932,0 700,-313.40068 700,-700z"/><path d="M109700,67000c0,-386.59932 -313.40068,-700 -700,-700c-386.59932,0 -700,313.40068 -700,700c0,386.59932 313.40068,700 700,700c386.59932,0 700,-313.40068 700,-700z"/><path d="M97700,63000c0,-386.59932 -313.40068,-700 -700,-700c-386.59932,0 -700,313.40068 -700,700c0,386.59932 313.40068,700 700,700c386.59932,0 700,-313.40068 700,-700z"/><path d="M94700,55000c0,-386.59932 -313.40068,-700 -700,-700c-386.59932,0 -700,313.40068 -700,700c0,386.59932 313.40068,700 700,700c386.59932,0 700,-313.40068 700,-700z"/><path d="M90700,55000c0,-386.59932 -313.40068,-700 -700,-700c-386.59932,0 -700,313.40068 -700,700c0,386.59932 313.40068,700 700,700c386.59932,0 700,-313.40068 700,-700z"/><path d="M86700,55000c0,-386.59932 -313.40068,-700 -700,-700c-386.59932,0 -700,313.40068 -700,700c0,386.59932 313.40068,700 700,700c386.59932,0 700,-313.40068 700,-700z"/><path d="M54700,30000c0,-386.59932 -313.40068,-700 -700,-700c-386.59932,0 -700,313.40068 -700,700c0,386.59932 313.40068,700 700,700c386.59932,0 700,-313.40068 700,-700z"/><path d="M50700,30000c0,-386.59932 -313.40068,-700 -700,-700c-386.59932,0 -700,313.40068 -700,700c0,386.59932 313.40068,700 700,700c386.59932,0 700,-313.40068 700,-700z"/><path d="M46700,30000c0,-386.59932 -313.40068,-700 -700,-700c-386.59932,0 -700,313.40068 -700,700c0,386.59932 313.40068,700 700,700c386.59932,0 700,-313.40068 700,-700z"/><path d="M74700,9000c0,-386.59932 -313.40068,-700 -700,-700c-386.59932,0 -700,313.40068 -700,700c0,386.59932 313.40068,700 700,700c386.59932,0 700,-313.40068 700,-700z"/><path d="M70700,9000c0,-386.59932 -313.40068,-700 -700,-700c-386.59932,0 -700,313.40068 -700,700c0,386.59932 313.40068,700 700,700c386.59932,0 700,-313.40068 700,-700z"/><path d="M66700,9000c0,-386.59932 -313.40068,-700 -700,-700c-386.59932,0 -700,313.40068 -700,700c0,386.59932 313.40068,700 700,700c386.59932,0 700,-313.40068 700,-700z"/><path d="M83700,26000c0,-386.59932 -313.40068,-700 -700,-700c-386.59932,0 -700,313.40068 -700,700c0,386.59932 313.40068,700 700,700c386.59932,0 700,-313.40068 700,-700z"/><path d="M91700,29000c0,-386.59932 -313.40068,-700 -700,-700c-386.59932,0 -700,313.40068 -700,700c0,386.59932 313.40068,700 700,700c386.59932,0 700,-313.40068 700,-700z"/><path d="M83700,50000c0,-386.59932 -313.40068,-700 -700,-700c-386.59932,0 -700,313.40068 -700,700c0,386.59932 313.40068,700 700,700c386.59932,0 700,-313.40068 700,-700z"/><path d="M57700,55000c0,-386.59932 -313.40068,-700 -700,-700c-386.59932,0 -700,313.40068 -700,700c0,386.59932 313.40068,700 700,700c386.59932,0 700,-313.40068 700,-700z"/><path d="M51700,51000c0,-386.59932 -313.40068,-700 -700,-700c-386.59932,0 -700,313.40068 -700,700c0,386.59932 313.40068,700 700,700c386.59932,0 700,-313.40068 700,-700z"/><path d="M59700,25000c0,-386.59932 -313.40068,-700 -700,-700c-386.59932,0 -700,313.40068 -700,700c0,386.59932 313.40068,700 700,700c386.59932,0 700,-313.40068 700,-700z"/><path d="M39700,25000c0,-386.59932 -313.40068,-700 -700,-700c-386.59932,0 -700,313.40068 -700,700c0,386.59932 313.40068,700 700,700c386.59932,0 700,-313.40068 700,-700z"/><path d="M39700,55000c0,-386.59932 -313.40068,-700 -700,-700c-386.59932,0 -700,313.40068 -700,700c0,386.59932 313.40068,700 700,700c386.59932,0 700,-313.40068 700,-700z"/><path d="M27700,59000c0,-386.59932 -313.40068,-700 -700,-700c-386.59932,0 -700,313.40068 -700,700c0,386.59932 313.40068,700 700,700c386.59932,0 700,-313.40068 700,-700z"/><path d="M102700,14000c0,-386.59932 -313.40068,-700 -700,-700c-386.59932,0 -700,313.40068 -700,700c0,386.59932 313.40068,700 700,700c386.59932,0 700,-313.40068 700,-700z"/></g></svg>