<svg width="135mm" height="85mm" viewBox="0 0 135000 85000"><svg width="0.135mm" height="0.085mm" viewBox="0 0 135 85"><g xmlns="http://www.w3.org/2000/svg" fill="#d32f2f" fill-rule="nonzero" stroke="none" stroke-width="none" stroke-linecap="butt" stroke-linejoin="miter" stroke-miterlimit="10" stroke-dasharray="" stroke-dashoffset="0" font-family="none" font-weight="none" font-size="none" text-anchor="none" style="mix-blend-mode: normal"><path d="M31000,35126.5c-69.86402,0 -126.5,-56.63598 -126.5,-126.5v0c0,-69.86402 56.63598,-126.5 126.5,-126.5v0c69.86402,0 126.5,56.63598 126.5,126.5v0c0,69.86402 -56.63598,126.5 -126.5,126.5zM31115.8939,35050.70358c-28.00282,64.00644 -102.59105,93.19314 -166.59749,65.19032v0c-64.00644,-28.00282 -93.19314,-102.59105 -65.19032,-166.59749l7000,-16000c28.00282,-64.00644 102.59105,-93.19314 166.59749,-65.19032v0c64.00644,28.00282 93.19314,102.59105 65.19032,166.59749zM38000,19126.5c-69.86402,0 -126.5,-56.63598 -126.5,-126.5v0c0,-69.86402 56.63598,-126.5 126.5,-126.5v0c69.86402,0 126.5,56.63598 126.5,126.5v0c0,69.86402 -56.63598,126.5 -126.5,126.5z" stroke-width="1"/><path d="M33000,14126.5c-69.86402,0 -126.5,-56.63598 -126.5,-126.5v0c0,-69.86402 56.63598,-126.5 126.5,-126.5v0c69.86402,0 126.5,56.63598 126.5,126.5v0c0,69.86402 -56.63598,126.5 -126.5,126.5zM32875.95654,13975.19131c13.70146,-68.50731 80.34484,-112.93623 148.85215,-99.23476v0c68.50731,13.70146 112.93623,80.34484 99.23476,148.85215l-5000,25000c-13.70146,68.50731 -80.34484,112.93623 -148.85215,99.23476v0c-68.50731,-13.70146 -112.93623,-80.34484 -99.23476,-148.85215zM28000,39126.5c-69.86402,0 -126.5,-56.63598 -126.5,-126.5v0c0,-69.86402 56.63598,-126.5 126.5,-126.5v0c69.86402,0 126.5,56.63598 126.5,126.5v0c0,69.86402 -56.63598,126.5 -126.5,126.5z" stroke-width="1"/><path d="M27710,40400v-2800h580v2800z" stroke-width="0"/><path d="M24000,39400v-800v0v800z" stroke-width="0"/><path d="M108000,59126.5c-69.86402,0 -126.5,-56.63598 -126.5,-126.5v0c0,-69.86402 56.63598,-126.5 126.5,-126.5v0c69.86402,0 126.5,56.63598 126.5,126.5v0c0,69.86402 -56.63598,126.5 -126.5,126.5zM108122.33493,58967.8066c17.77993,67.56372 -22.57781,136.74841 -90.14153,154.52833v0c-67.56372,17.77993 -136.74841,-22.57781 -154.52833,-90.14153l-5000,-19000c-17.77993,-67.56372 22.57781,-136.74841 90.14153,-154.52833v0c67.56372,-17.77993 136.74841,22.57781 154.52833,90.14153zM103000,40126.5c-69.86402,0 -126.5,-56.63598 -126.5,-126.5v0c0,-69.86402 56.63598,-126.5 126.5,-126.5v0c69.86402,0 126.5,56.63598 126.5,126.5v0c0,69.86402 -56.63598,126.5 -126.5,126.5z" stroke-width="1"/><path d="M96000,55126.5c-69.86402,0 -126.5,-56.63598 -126.5,-126.5v0c0,-69.86402 56.63598,-126.5 126.5,-126.5v0c69.86402,0 126.5,56.63598 126.5,126.5v0c0,69.86402 -56.63598,126.5 -126.5,126.5zM96118.88387,55043.2305c-23.87554,65.65775 -96.45662,99.52892 -162.11437,75.65337v0c-65.65775,-23.87554 -99.52892,-96.45662 -75.65337,-162.11437l4000,-11000c23.87554,-65.65775 96.45662,-99.52892 162.11437,-75.65337v0c65.65775,23.87554 99.52892,96.45662 75.65337,162.11437zM100000,44126.5c-69.86402,0 -126.5,-56.63598 -126.5,-126.5v0c0,-69.86402 56.63598,-126.5 126.5,-126.5v0c69.86402,0 126.5,56.63598 126.5,126.5v0c0,69.86402 -56.63598,126.5 -126.5,126.5z" stroke-width="1"/><path d="M96000,25126.5c-69.86402,0 -126.5,-56.63598 -126.5,-126.5v0c0,-69.86402 56.63598,-126.5 126.5,-126.5v0c69.86402,0 126.5,56.63598 126.5,126.5v0c0,69.86402 -56.63598,126.5 -126.5,126.5zM95881.11613,25043.2305c-23.87554,-65.65775 9.99562,-138.23882 75.65337,-162.11437v0c65.65775,-23.87554 138.23882,9.99562 162.11437,75.65337l4000,11000c23.87554,65.65775 -9.99562,138.23882 -75.65337,162.11437v0c-65.65775,23.87554 -138.23882,-9.99562 -162.11437,-75.65337zM100000,36126.5c-69.86402,0 -126.5,-56.63598 -126.5,-126.5v0c0,-69.86402 56.63598,-126.5 126.5,-126.5v0c69.86402,0 126.5,56.63598 126.5,126.5v0c0,69.86402 -56.63598,126.5 -126.5,126.5z" stroke-width="1"/><path d="M89000,30126.5c-69.86402,0 -126.5,-56.63598 -126.5,-126.5v0c0,-69.86402 56.63598,-126.5 126.5,-126.5v0c69.86402,0 126.5,56.63598 126.5,126.5v0c0,69.86402 -56.63598,126.5 -126.5,126.5zM88873.56074,29996.08038c2.16474,-69.83048 60.5284,-124.68439 130.35888,-122.51964v0c69.83048,2.16474 124.68439,60.5284 122.51964,130.35888l-310,10000c-2.16474,69.83048 -60.5284,124.68439 -130.35888,122.51964v0c-69.83048,-2.16474 -124.68439,-60.5284 -122.51964,-130.35888zM88690,40126.5c-69.86402,0 -126.5,-56.63598 -126.5,-126.5v0c0,-69.86402 56.63598,-126.5 126.5,-126.5v0c69.86402,0 126.5,56.63598 126.5,126.5v0c0,69.86402 -56.63598,126.5 -126.5,126.5z" stroke-width="1"/><path d="M85000,30126.5c-69.86402,0 -126.5,-56.63598 -126.5,-126.5v0c0,-69.86402 56.63598,-126.5 126.5,-126.5v0c69.86402,0 126.5,56.63598 126.5,126.5v0c0,69.86402 -56.63598,126.5 -126.5,126.5zM84873.5,30000c0,-69.86402 56.63598,-126.5 126.5,-126.5v0c69.86402,0 126.5,56.63598 126.5,126.5v10000c0,69.86402 -56.63598,126.5 -126.5,126.5v0c-69.86402,0 -126.5,-56.63598 -126.5,-126.5zM85000,40126.5c-69.86402,0 -126.5,-56.63598 -126.5,-126.5v0c0,-69.86402 56.63598,-126.5 126.5,-126.5v0c69.86402,0 126.5,56.63598 126.5,126.5v0c0,69.86402 -56.63598,126.5 -126.5,126.5z" stroke-width="1"/><path d="M81000,31126.5c-69.86402,0 -126.5,-56.63598 -126.5,-126.5v0c0,-69.86402 56.63598,-126.5 126.5,-126.5v0c69.86402,0 126.5,56.63598 126.5,126.5v0c0,69.86402 -56.63598,126.5 -126.5,126.5zM80873.57497,31004.35464c-2.405,-69.82261 52.24777,-128.37466 122.07039,-130.77967v0c69.82261,-2.405 128.37466,52.24777 130.77967,122.07039l310,9000c2.405,69.82261 -52.24777,128.37466 -122.07039,130.77967v0c-69.82261,2.405 -128.37466,-52.24777 -130.77967,-122.07039zM81310,40126.5c-69.86402,0 -126.5,-56.63598 -126.5,-126.5v0c0,-69.86402 56.63598,-126.5 126.5,-126.5v0c69.86402,0 126.5,56.63598 126.5,126.5v0c0,69.86402 -56.63598,126.5 -126.5,126.5z" stroke-width="1"/><path d="M74000,40126.5c-69.86402,0 -126.5,-56.63598 -126.5,-126.5v0c0,-69.86402 56.63598,-126.5 126.5,-126.5v0c69.86402,0 126.5,56.63598 126.5,126.5v0c0,69.86402 -56.63598,126.5 -126.5,126.5zM73906.39758,40085.09311c-46.99563,-51.69519 -43.18588,-131.6999 8.50931,-178.69553v0c51.69519,-46.99563 131.6999,-43.18588 178.69553,8.50931l10000,11000c46.99563,51.69519 43.18588,131.6999 -8.50931,178.69553v0c-51.69519,46.99563 -131.6999,43.18588 -178.69553,-8.50931zM84000,51126.5c-69.86402,0 -126.5,-56.63598 -126.5,-126.5v0c0,-69.86402 56.63598,-126.5 126.5,-126.5v0c69.86402,0 126.5,56.63598 126.5,126.5v0c0,69.86402 -56.63598,126.5 -126.5,126.5z" stroke-width="1"/><path d="M78000,55126.5c-69.86402,0 -126.5,-56.63598 -126.5,-126.5v0c0,-69.86402 56.63598,-126.5 126.5,-126.5v0c69.86402,0 126.5,56.63598 126.5,126.5v0c0,69.86402 -56.63598,126.5 -126.5,126.5zM78111.05379,54939.42521c33.45454,61.33331 10.85432,138.17405 -50.479,171.62858v0c-61.33331,33.45454 -138.17405,10.85432 -171.62858,-50.479l-6000,-11000c-33.45454,-61.33331 -10.85432,-138.17405 50.479,-171.62858v0c61.33331,-33.45454 138.17405,-10.85432 171.62858,50.479zM72000,44126.5c-69.86402,0 -126.5,-56.63598 -126.5,-126.5v0c0,-69.86402 56.63598,-126.5 126.5,-126.5v0c69.86402,0 126.5,56.63598 126.5,126.5v0c0,69.86402 -56.63598,126.5 -126.5,126.5z" stroke-width="1"/><path d="M76000,25126.5c-69.86402,0 -126.5,-56.63598 -126.5,-126.5v0c0,-69.86402 56.63598,-126.5 126.5,-126.5v0c69.86402,0 126.5,56.63598 126.5,126.5v0c0,69.86402 -56.63598,126.5 -126.5,126.5zM75881.11613,24956.7695c23.87554,-65.65775 96.45662,-99.52892 162.11437,-75.65337v0c65.65775,23.87554 99.52892,96.45662 75.65337,162.11437l-4000,11000c-23.87554,65.65775 -96.45662,99.52892 -162.11437,75.65337v0c-65.65775,-23.87554 -99.52892,-96.45662 -75.65337,-162.11437zM72000,36126.5c-69.86402,0 -126.5,-56.63598 -126.5,-126.5v0c0,-69.86402 56.63598,-126.5 126.5,-126.5v0c69.86402,0 126.5,56.63598 126.5,126.5v0c0,69.86402 -56.63598,126.5 -126.5,126.5z" stroke-width="1"/><path d="M69000,9126.5c-69.86402,0 -126.5,-56.63598 -126.5,-126.5v0c0,-69.86402 56.63598,-126.5 126.5,-126.5v0c69.86402,0 126.5,56.63598 126.5,126.5v0c0,69.86402 -56.63598,126.5 -126.5,126.5zM68873.5502,8996.43641c1.96811,-69.83629 60.17709,-124.85432 130.01338,-122.88621v0c69.83629,1.96811 124.85432,60.17709 122.88621,130.01338l-310,11000c-1.96811,69.83629 -60.17709,124.85432 -130.01338,122.88621v0c-69.83629,-1.96811 -124.85432,-60.17709 -122.88621,-130.01338zM68690,20126.5c-69.86402,0 -126.5,-56.63598 -126.5,-126.5v0c0,-69.86402 56.63598,-126.5 126.5,-126.5v0c69.86402,0 126.5,56.63598 126.5,126.5v0c0,69.86402 -56.63598,126.5 -126.5,126.5z" stroke-width="1"/><path d="M65000,9126.5c-69.86402,0 -126.5,-56.63598 -126.5,-126.5v0c0,-69.86402 56.63598,-126.5 126.5,-126.5v0c69.86402,0 126.5,56.63598 126.5,126.5v0c0,69.86402 -56.63598,126.5 -126.5,126.5zM64873.5,9000c0,-69.86402 56.63598,-126.5 126.5,-126.5v0c69.86402,0 126.5,56.63598 126.5,126.5l0,11000c0,69.86402 -56.63598,126.5 -126.5,126.5v0c-69.86402,0 -126.5,-56.63598 -126.5,-126.5zM65000,20126.5c-69.86402,0 -126.5,-56.63598 -126.5,-126.5v0c0,-69.86402 56.63598,-126.5 126.5,-126.5v0c69.86402,0 126.5,56.63598 126.5,126.5v0c0,69.86402 -56.63598,126.5 -126.5,126.5z" stroke-width="1"/><path d="M61000,9126.5c-69.86402,0 -126.5,-56.63598 -126.5,-126.5v0c0,-69.86402 56.63598,-126.5 126.5,-126.5v0c69.86402,0 126.5,56.63598 126.5,126.5v0c0,69.86402 -56.63598,126.5 -126.5,126.5zM60873.5502,9003.56359c-1.96811,-69.83629 53.04992,-128.04527 122.88621,-130.01338v0c69.83629,-1.96811 128.04527,53.04992 130.01338,122.88621l310,11000c1.96811,69.83629 -53.04992,128.04527 -122.88621,130.01338v0c-69.83629,1.96811 -128.04527,-53.04992 -130.01338,-122.88621zM61310,20126.5c-69.86402,0 -126.5,-56.63598 -126.5,-126.5v0c0,-69.86402 56.63598,-126.5 126.5,-126.5v0c69.86402,0 126.5,56.63598 126.5,126.5v0c0,69.86402 -56.63598,126.5 -126.5,126.5z" stroke-width="1"/><path d="M52000,26126.5c-69.86402,0 -126.5,-56.63598 -126.5,-126.5v0c0,-69.86402 56.63598,-126.5 126.5,-126.5v0c69.86402,0 126.5,56.63598 126.5,126.5v0c0,69.86402 -56.63598,126.5 -126.5,126.5zM51917.67489,26096.04596c-53.04472,-45.4669 -59.18775,-125.32635 -13.72085,-178.37107v0c45.4669,-53.04472 125.32635,-59.18775 178.37107,-13.72085l7000,6000c53.04472,45.4669 59.18775,125.32635 13.72085,178.37107v0c-45.4669,53.04472 -125.32635,59.18775 -178.37107,13.72085zM59000,32126.5c-69.86402,0 -126.5,-56.63598 -126.5,-126.5v0c0,-69.86402 56.63598,-126.5 126.5,-126.5v0c69.86402,0 126.5,56.63598 126.5,126.5v0c0,69.86402 -56.63598,126.5 -126.5,126.5z" stroke-width="1"/><path d="M44000,29126.5c-69.86402,0 -126.5,-56.63598 -126.5,-126.5v0c0,-69.86402 56.63598,-126.5 126.5,-126.5v0c69.86402,0 126.5,56.63598 126.5,126.5v0c0,69.86402 -56.63598,126.5 -126.5,126.5zM43921.84557,29099.46927c-54.93536,-43.1635 -64.47834,-122.68834 -21.31484,-177.6237v0c43.1635,-54.93536 122.68834,-64.47834 177.6237,-21.31484l14000,11000c54.93536,43.1635 64.47834,122.68834 21.31484,177.6237v0c-43.1635,54.93536 -122.68834,64.47834 -177.6237,21.31484zM58000,40126.5c-69.86402,0 -126.5,-56.63598 -126.5,-126.5v0c0,-69.86402 56.63598,-126.5 126.5,-126.5v0c69.86402,0 126.5,56.63598 126.5,126.5v0c0,69.86402 -56.63598,126.5 -126.5,126.5z" stroke-width="1"/><path d="M52000,50126.5c-69.86402,0 -126.5,-56.63598 -126.5,-126.5v0c0,-69.86402 56.63598,-126.5 126.5,-126.5v0c69.86402,0 126.5,56.63598 126.5,126.5v0c0,69.86402 -56.63598,126.5 -126.5,126.5zM52067.04487,50107.27179c-59.24457,37.02786 -137.28879,19.01765 -174.31665,-40.22692v0c-37.02786,-59.24457 -19.01765,-137.28879 40.22692,-174.31665l8000,-5000c59.24457,-37.02786 137.28879,-19.01765 174.31665,40.22692v0c37.02786,59.24457 19.01765,137.28879 -40.22692,174.31665zM60000,45126.5c-69.86402,0 -126.5,-56.63598 -126.5,-126.5v0c0,-69.86402 56.63598,-126.5 126.5,-126.5v0c69.86402,0 126.5,56.63598 126.5,126.5v0c0,69.86402 -56.63598,126.5 -126.5,126.5z" stroke-width="1"/><path d="M48690,40126.5c-69.86402,0 -126.5,-56.63598 -126.5,-126.5v0c0,-69.86402 56.63598,-126.5 126.5,-126.5v0c69.86402,0 126.5,56.63598 126.5,126.5v0c0,69.86402 -56.63598,126.5 -126.5,126.5zM48563.52701,40002.61378c-1.44355,-69.84911 54.01011,-127.64322 123.85922,-129.08677v0c69.84911,-1.44355 127.64322,54.01011 129.08677,123.85922l310,15000c1.44355,69.84911 -54.01011,127.64322 -123.85922,129.08677v0c-69.84911,1.44355 -127.64322,-54.01011 -129.08677,-123.85922zM49000,55126.5c-69.86402,0 -126.5,-56.63598 -126.5,-126.5v0c0,-69.86402 56.63598,-126.5 126.5,-126.5v0c69.86402,0 126.5,56.63598 126.5,126.5v0c0,69.86402 -56.63598,126.5 -126.5,126.5z" stroke-width="1"/><path d="M45000,55126.5c-69.86402,0 -126.5,-56.63598 -126.5,-126.5v0c0,-69.86402 56.63598,-126.5 126.5,-126.5v0c69.86402,0 126.5,56.63598 126.5,126.5v0c0,69.86402 -56.63598,126.5 -126.5,126.5zM45126.5,55000c0,69.86402 -56.63598,126.5 -126.5,126.5v0c-69.86402,0 -126.5,-56.63598 -126.5,-126.5l0,-15000c0,-69.86402 56.63598,-126.5 126.5,-126.5v0c69.86402,0 126.5,56.63598 126.5,126.5zM45000,40126.5c-69.86402,0 -126.5,-56.63598 -126.5,-126.5v0c0,-69.86402 56.63598,-126.5 126.5,-126.5v0c69.86402,0 126.5,56.63598 126.5,126.5v0c0,69.86402 -56.63598,126.5 -126.5,126.5z" stroke-width="1"/><path d="M41310,40126.5c-69.86402,0 -126.5,-56.63598 -126.5,-126.5v0c0,-69.86402 56.63598,-126.5 126.5,-126.5v0c69.86402,0 126.5,56.63598 126.5,126.5v0c0,69.86402 -56.63598,126.5 -126.5,126.5zM41183.52701,39997.38622c1.44355,-69.84911 59.23766,-125.30277 129.08677,-123.85922v0c69.84911,1.44355 125.30277,59.23766 123.85922,129.08677l-310,15000c-1.44355,69.84911 -59.23766,125.30277 -129.08677,123.85922v0c-69.84911,-1.44355 -125.30277,-59.23766 -123.85922,-129.08677zM41000,55126.5c-69.86402,0 -126.5,-56.63598 -126.5,-126.5v0c0,-69.86402 56.63598,-126.5 126.5,-126.5v0c69.86402,0 126.5,56.63598 126.5,126.5v0c0,69.86402 -56.63598,126.5 -126.5,126.5z" stroke-width="1"/><path d="M25000,14126.5c-69.86402,0 -126.5,-56.63598 -126.5,-126.5v0c0,-69.86402 56.63598,-126.5 126.5,-126.5v0c69.86402,0 126.5,56.63598 126.5,126.5v0c0,69.86402 -56.63598,126.5 -126.5,126.5zM24873.64318,14006.01699c-3.32309,-69.78494 50.55488,-129.05072 120.33983,-132.37381v0c69.78494,-3.32309 129.05072,50.55488 132.37381,120.33983l1000,21000c3.32309,69.78494 -50.55488,129.05072 -120.33983,132.37381v0c-69.78494,3.32309 -129.05072,-50.55488 -132.37381,-120.33983zM26000,35126.5c-69.86402,0 -126.5,-56.63598 -126.5,-126.5v0c0,-69.86402 56.63598,-126.5 126.5,-126.5v0c69.86402,0 126.5,56.63598 126.5,126.5v0c0,69.86402 -56.63598,126.5 -126.5,126.5z" stroke-width="1"/><path d="M7000,45126.5c-69.86402,0 -126.5,-56.63598 -126.5,-126.5v0c0,-69.86402 56.63598,-126.5 126.5,-126.5v0c69.86402,0 126.5,56.63598 126.5,126.5v0c0,69.86402 -56.63598,126.5 -126.5,126.5zM7044.41712,45118.44564c-65.41572,24.5309 -138.33186,-8.6128 -162.86276,-74.02853v0c-24.5309,-65.41572 8.6128,-138.33186 74.02853,-162.86276l16000,-6000c65.41572,-24.5309 138.33186,8.6128 162.86276,74.02853v0c24.5309,65.41572 -8.6128,138.33186 -74.02853,162.86276zM23000,39126.5c-69.86402,0 -126.5,-56.63598 -126.5,-126.5v0c0,-69.86402 56.63598,-126.5 126.5,-126.5v0c69.86402,0 126.5,56.63598 126.5,126.5v0c0,69.86402 -56.63598,126.5 -126.5,126.5z" stroke-width="1"/><path d="M26000,67126.5c-69.86402,0 -126.5,-56.63598 -126.5,-126.5v0c0,-69.86402 56.63598,-126.5 126.5,-126.5v0c69.86402,0 126.5,56.63598 126.5,126.5v0c0,69.86402 -56.63598,126.5 -126.5,126.5zM26126.5,67000c0,69.86402 -56.63598,126.5 -126.5,126.5v0c-69.86402,0 -126.5,-56.63598 -126.5,-126.5v-24000c0,-69.86402 56.63598,-126.5 126.5,-126.5v0c69.86402,0 126.5,56.63598 126.5,126.5zM26000,43126.5c-69.86402,0 -126.5,-56.63598 -126.5,-126.5v0c0,-69.86402 56.63598,-126.5 126.5,-126.5v0c69.86402,0 126.5,56.63598 126.5,126.5v0c0,69.86402 -56.63598,126.5 -126.5,126.5z" stroke-width="1"/><path d="M38000,63126.5c-69.86402,0 -126.5,-56.63598 -126.5,-126.5v0c0,-69.86402 56.63598,-126.5 126.5,-126.5v0c69.86402,0 126.5,56.63598 126.5,126.5v0c0,69.86402 -56.63598,126.5 -126.5,126.5zM38120.00844,62959.99719c22.09294,66.27883 -13.7268,137.91831 -80.00562,160.01125v0c-66.27883,22.09294 -137.91831,-13.7268 -160.01125,-80.00562l-7000,-21000c-22.09294,-66.27883 13.7268,-137.91831 80.00562,-160.01125v0c66.27883,-22.09294 137.91831,13.7268 160.01125,80.00562zM31000,42126.5c-69.86402,0 -126.5,-56.63598 -126.5,-126.5v0c0,-69.86402 56.63598,-126.5 126.5,-126.5v0c69.86402,0 126.5,56.63598 126.5,126.5v0c0,69.86402 -56.63598,126.5 -126.5,126.5z" stroke-width="1"/><path d="M73710,41400v-2800h580v2800z" stroke-width="0"/><path d="M57710,41400v-2800h580v2800z" stroke-width="0"/><path d="M102710,41400v-2800h580v2800z" stroke-width="0"/><path d="M98600,43710h2800v580h-2800z" stroke-width="0"/><path d="M98600,35710h2800v580h-2800z" stroke-width="0"/><path d="M57600,31710h2800v580h-2800z" stroke-width="0"/><path d="M70600,43710h2800v580h-2800z" stroke-width="0"/><path d="M70600,35710h2800v580h-2800z" stroke-width="0"/><path d="M58600,44710h2800v580h-2800z" stroke-width="0"/><path d="M29600,41710h2800v580h-2800z" stroke-width="0"/><path d="M29600,34710h2800v580h-2800z" stroke-width="0"/><path d="M22710,40400v-2800h580v2800z" stroke-width="0"/><path d="M24600,42710h2800v580h-2800z" stroke-width="0"/><path d="M24600,34710h2800v580h-2800z" stroke-width="0"/><path d="M84485,37255h1030v5490h-1030zM87795,37255h1030v5490h-1030zM81175,37255h1030v5490h-1030z" stroke-width="1"/><path d="M64485,17255h1030v5490h-1030zM67795,17255h1030v5490h-1030zM61175,17255h1030v5490h-1030z" stroke-width="1"/><path d="M44485,37255h1030v5490h-1030zM47795,37255h1030v5490h-1030zM41175,37255h1030v5490h-1030z" stroke-width="1"/><path d="M32300,14000c0,-386.59932 313.40068,-700 700,-700c386.59932,0 700,313.40068 700,700c0,386.59932 -313.40068,700 -700,700c-386.59932,0 -700,-313.40068 -700,-700z" stroke-width="1"/><path d="M107300,59000c0,-386.59932 313.40068,-700 700,-700c386.59932,0 700,313.40068 700,700c0,386.59932 -313.40068,700 -700,700c-386.59932,0 -700,-313.40068 -700,-700z" stroke-width="1"/><path d="M95300,55000c0,-386.59932 313.40068,-700 700,-700c386.59932,0 700,313.40068 700,700c0,386.59932 -313.40068,700 -700,700c-386.59932,0 -700,-313.40068 -700,-700z" stroke-width="1"/><path d="M95300,25000c0,-386.59932 313.40068,-700 700,-700c386.59932,0 700,313.40068 700,700c0,386.59932 -313.40068,700 -700,700c-386.59932,0 -700,-313.40068 -700,-700z" stroke-width="1"/><path d="M75300,25000c0,-386.59932 313.40068,-700 700,-700c386.59932,0 700,313.40068 700,700c0,386.59932 -313.40068,700 -700,700c-386.59932,0 -700,-313.40068 -700,-700z" stroke-width="1"/><path d="M83300,51000c0,-386.59932 313.40068,-700 700,-700c386.59932,0 700,313.40068 700,700c0,386.59932 -313.40068,700 -700,700c-386.59932,0 -700,-313.40068 -700,-700z" stroke-width="1"/><path d="M77300,55000c0,-386.59932 313.40068,-700 700,-700c386.59932,0 700,313.40068 700,700c0,386.59932 -313.40068,700 -700,700c-386.59932,0 -700,-313.40068 -700,-700z" stroke-width="1"/><path d="M51300,50000c0,-386.59932 313.40068,-700 700,-700c386.59932,0 700,313.40068 700,700c0,386.59932 -313.40068,700 -700,700c-386.59932,0 -700,-313.40068 -700,-700z" stroke-width="1"/><path d="M43300,29000c0,-386.59932 313.40068,-700 700,-700c386.59932,0 700,313.40068 700,700c0,386.59932 -313.40068,700 -700,700c-386.59932,0 -700,-313.40068 -700,-700z" stroke-width="1"/><path d="M51300,26000c0,-386.59932 313.40068,-700 700,-700c386.59932,0 700,313.40068 700,700c0,386.59932 -313.40068,700 -700,700c-386.59932,0 -700,-313.40068 -700,-700z" stroke-width="1"/><path d="M68300,9000c0,-386.59932 313.40068,-700 700,-700c386.59932,0 700,313.40068 700,700c0,386.59932 -313.40068,700 -700,700c-386.59932,0 -700,-313.40068 -700,-700z" stroke-width="1"/><path d="M64300,9000c0,-386.59932 313.40068,-700 700,-700c386.59932,0 700,313.40068 700,700c0,386.59932 -313.40068,700 -700,700c-386.59932,0 -700,-313.40068 -700,-700z" stroke-width="1"/><path d="M60300,9000c0,-386.59932 313.40068,-700 700,-700c386.59932,0 700,313.40068 700,700c0,386.59932 -313.40068,700 -700,700c-386.59932,0 -700,-313.40068 -700,-700z" stroke-width="1"/><path d="M88300,30000c0,-386.59932 313.40068,-700 700,-700c386.59932,0 700,313.40068 700,700c0,386.59932 -313.40068,700 -700,700c-386.59932,0 -700,-313.40068 -700,-700z" stroke-width="1"/><path d="M84300,30000c0,-386.59932 313.40068,-700 700,-700c386.59932,0 700,313.40068 700,700c0,386.59932 -313.40068,700 -700,700c-386.59932,0 -700,-313.40068 -700,-700z" stroke-width="1"/><path d="M80300,30000c0,-386.59932 313.40068,-700 700,-700c386.59932,0 700,313.40068 700,700c0,386.59932 -313.40068,700 -700,700c-386.59932,0 -700,-313.40068 -700,-700z" stroke-width="1"/><path d="M48300,55000c0,-386.59932 313.40068,-700 700,-700c386.59932,0 700,313.40068 700,700c0,386.59932 -313.40068,700 -700,700c-386.59932,0 -700,-313.40068 -700,-700z" stroke-width="1"/><path d="M44300,55000c0,-386.59932 313.40068,-700 700,-700c386.59932,0 700,313.40068 700,700c0,386.59932 -313.40068,700 -700,700c-386.59932,0 -700,-313.40068 -700,-700z" stroke-width="1"/><path d="M40300,55000c0,-386.59932 313.40068,-700 700,-700c386.59932,0 700,313.40068 700,700c0,386.59932 -313.40068,700 -700,700c-386.59932,0 -700,-313.40068 -700,-700z" stroke-width="1"/><path d="M37300,63000c0,-386.59932 313.40068,-700 700,-700c386.59932,0 700,313.40068 700,700c0,386.59932 -313.40068,700 -700,700c-386.59932,0 -700,-313.40068 -700,-700z" stroke-width="1"/><path d="M25300,67000c0,-386.59932 313.40068,-700 700,-700c386.59932,0 700,313.40068 700,700c0,386.59932 -313.40068,700 -700,700c-386.59932,0 -700,-313.40068 -700,-700z" stroke-width="1"/><path d="M24300,14000c0,-386.59932 313.40068,-700 700,-700c386.59932,0 700,313.40068 700,700c0,386.59932 -313.40068,700 -700,700c-386.59932,0 -700,-313.40068 -700,-700z" stroke-width="1"/><path d="M37300,19000c0,-386.59932 313.40068,-700 700,-700c386.59932,0 700,313.40068 700,700c0,386.59932 -313.40068,700 -700,700c-386.59932,0 -700,-313.40068 -700,-700z" stroke-width="1"/><path d="M6300,45000c0,-386.59932 313.40068,-700 700,-700c386.59932,0 700,313.40068 700,700c0,386.59932 -313.40068,700 -700,700c-386.59932,0 -700,-313.40068 -700,-700z" stroke-width="1"/></g></svg></svg>