<svg width="135mm" height="85mm" viewBox="0 0 135000 85000"><svg width="0.135mm" height="0.085mm" viewBox="0 0 135 85"><g xmlns="http://www.w3.org/2000/svg" fill="none" fill-rule="nonzero" stroke="none" stroke-width="none" stroke-linecap="butt" stroke-linejoin="miter" stroke-miterlimit="10" stroke-dasharray="" stroke-dashoffset="0" font-family="none" font-weight="none" font-size="none" text-anchor="none" style="mix-blend-mode: normal"><path fill="none" stroke="#ff7606" stroke-width="200"/><path d="M84000,98400v-800v0v800z" fill="#303f9f" stroke="none" stroke-width="0"/><path d="M4000,26400v-800v0v800z" fill="#303f9f" stroke="none" stroke-width="0"/><path d="M59000,40400v-800h15000v800z" fill="#303f9f" stroke="none" stroke-width="0"/><path d="M60000,40400v-800v0v800z" fill="#303f9f" stroke="none" stroke-width="0"/><path d="M89280,40400c-220.9139,0 -400,-179.0861 -400,-400v0c0,-220.9139 179.0861,-400 400,-400h10720c220.9139,0 400,179.0861 400,400v0c0,220.9139 -179.0861,400 -400,400zM100400,40000c0,220.9139 -179.0861,400 -400,400v0c-220.9139,0 -400,-179.0861 -400,-400v-10000c0,-220.9139 179.0861,-400 400,-400v0c220.9139,0 400,179.0861 400,400zM100178.88544,30357.77088c-197.5914,98.7957 -437.86062,18.70596 -536.65631,-178.88544v0c-98.7957,-197.5914 -18.70596,-437.86062 178.88544,-536.65631l20000,-10000c197.5914,-98.7957 437.86062,-18.70596 536.65631,178.88544v0c98.7957,197.5914 18.70596,437.86062 -178.88544,536.65631zM99600,40000c0,-220.9139 179.0861,-400 400,-400v0c220.9139,0 400,179.0861 400,400v10000c0,220.9139 -179.0861,400 -400,400v0c-220.9139,0 -400,-179.0861 -400,-400zM99821.11456,50357.77088c-197.5914,-98.7957 -277.68114,-339.06492 -178.88544,-536.65631v0c98.7957,-197.5914 339.06492,-277.68114 536.65631,-178.88544l20000,10000c197.5914,98.7957 277.68114,339.06492 178.88544,536.65631v0c-98.7957,197.5914 -339.06492,277.68114 -536.65631,178.88544zM100000,40400c-220.9139,0 -400,-179.0861 -400,-400v0c0,-220.9139 179.0861,-400 400,-400h20000c220.9139,0 400,179.0861 400,400v0c0,220.9139 -179.0861,400 -400,400z" fill="#303f9f" stroke="none" stroke-width="1"/><path d="M89280,40400c-220.9139,0 -400,-179.0861 -400,-400v0c0,-220.9139 179.0861,-400 400,-400h10720c220.9139,0 400,179.0861 400,400v0c0,220.9139 -179.0861,400 -400,400zM100400,40000c0,220.9139 -179.0861,400 -400,400v0c-220.9139,0 -400,-179.0861 -400,-400v-10000c0,-220.9139 179.0861,-400 400,-400v0c220.9139,0 400,179.0861 400,400zM100178.88544,30357.77088c-197.5914,98.7957 -437.86062,18.70596 -536.65631,-178.88544v0c-98.7957,-197.5914 -18.70596,-437.86062 178.88544,-536.65631l20000,-10000c197.5914,-98.7957 437.86062,-18.70596 536.65631,178.88544v0c98.7957,197.5914 18.70596,437.86062 -178.88544,536.65631zM99600,40000c0,-220.9139 179.0861,-400 400,-400v0c220.9139,0 400,179.0861 400,400v10000c0,220.9139 -179.0861,400 -400,400v0c-220.9139,0 -400,-179.0861 -400,-400zM99821.11456,50357.77088c-197.5914,-98.7957 -277.68114,-339.06492 -178.88544,-536.65631v0c98.7957,-197.5914 339.06492,-277.68114 536.65631,-178.88544l20000,10000c197.5914,98.7957 277.68114,339.06492 178.88544,536.65631v0c-98.7957,197.5914 -339.06492,277.68114 -536.65631,178.88544zM100000,40400c-220.9139,0 -400,-179.0861 -400,-400v0c0,-220.9139 179.0861,-400 400,-400h20000c220.9139,0 400,179.0861 400,400v0c0,220.9139 -179.0861,400 -400,400z" fill="#303f9f" stroke="none" stroke-width="1"/><path d="M89280,40400c-220.9139,0 -400,-179.0861 -400,-400v0c0,-220.9139 179.0861,-400 400,-400h10720c220.9139,0 400,179.0861 400,400v0c0,220.9139 -179.0861,400 -400,400zM100400,40000c0,220.9139 -179.0861,400 -400,400v0c-220.9139,0 -400,-179.0861 -400,-400v-10000c0,-220.9139 179.0861,-400 400,-400v0c220.9139,0 400,179.0861 400,400zM100178.88544,30357.77088c-197.5914,98.7957 -437.86062,18.70596 -536.65631,-178.88544v0c-98.7957,-197.5914 -18.70596,-437.86062 178.88544,-536.65631l20000,-10000c197.5914,-98.7957 437.86062,-18.70596 536.65631,178.88544v0c98.7957,197.5914 18.70596,437.86062 -178.88544,536.65631zM99600,40000c0,-220.9139 179.0861,-400 400,-400v0c220.9139,0 400,179.0861 400,400v10000c0,220.9139 -179.0861,400 -400,400v0c-220.9139,0 -400,-179.0861 -400,-400zM99821.11456,50357.77088c-197.5914,-98.7957 -277.68114,-339.06492 -178.88544,-536.65631v0c98.7957,-197.5914 339.06492,-277.68114 536.65631,-178.88544l20000,10000c197.5914,98.7957 277.68114,339.06492 178.88544,536.65631v0c-98.7957,197.5914 -339.06492,277.68114 -536.65631,178.88544zM100000,40400c-220.9139,0 -400,-179.0861 -400,-400v0c0,-220.9139 179.0861,-400 400,-400h20000c220.9139,0 400,179.0861 400,400v0c0,220.9139 -179.0861,400 -400,400z" fill="#303f9f" stroke="none" stroke-width="1"/><path d="M70113.17806,54973.65444c-211.88649,62.50652 -434.32598,-58.58988 -496.8325,-270.47638v0c-62.50652,-211.88649 58.58988,-434.32598 270.47638,-496.8325l2000,-590c211.88649,-62.50652 434.32598,58.58988 496.8325,270.47638v0c62.50652,211.88649 -58.58988,434.32598 -270.47638,496.8325zM72400,54000c0,220.9139 -179.0861,400 -400,400v0c-220.9139,0 -400,-179.0861 -400,-400v-34000c0,-220.9139 179.0861,-400 400,-400v0c220.9139,0 400,179.0861 400,400zM72000,19600c220.9139,0 400,179.0861 400,400v0c0,220.9139 -179.0861,400 -400,400l-2720,0c-220.9139,0 -400,-179.0861 -400,-400v0c0,-220.9139 179.0861,-400 400,-400zM72000,40400c-220.9139,0 -400,-179.0861 -400,-400v0c0,-220.9139 179.0861,-400 400,-400h8720c220.9139,0 400,179.0861 400,400v0c0,220.9139 -179.0861,400 -400,400z" fill="#303f9f" stroke="none" stroke-width="1"/><path d="M70113.17806,54973.65444c-211.88649,62.50652 -434.32598,-58.58988 -496.8325,-270.47638v0c-62.50652,-211.88649 58.58988,-434.32598 270.47638,-496.8325l2000,-590c211.88649,-62.50652 434.32598,58.58988 496.8325,270.47638v0c62.50652,211.88649 -58.58988,434.32598 -270.47638,496.8325zM72400,54000c0,220.9139 -179.0861,400 -400,400v0c-220.9139,0 -400,-179.0861 -400,-400v-34000c0,-220.9139 179.0861,-400 400,-400v0c220.9139,0 400,179.0861 400,400zM72000,19600c220.9139,0 400,179.0861 400,400v0c0,220.9139 -179.0861,400 -400,400l-2720,0c-220.9139,0 -400,-179.0861 -400,-400v0c0,-220.9139 179.0861,-400 400,-400zM72000,40400c-220.9139,0 -400,-179.0861 -400,-400v0c0,-220.9139 179.0861,-400 400,-400h8720c220.9139,0 400,179.0861 400,400v0c0,220.9139 -179.0861,400 -400,400z" fill="#303f9f" stroke="none" stroke-width="1"/><path d="M49280,40400c-220.9139,0 -400,-179.0861 -400,-400v0c0,-220.9139 179.0861,-400 400,-400h10720c220.9139,0 400,179.0861 400,400v0c0,220.9139 -179.0861,400 -400,400zM60398.01488,39960.19851c21.98175,219.81755 -138.39584,415.83461 -358.21339,437.81636v0c-219.81755,21.98175 -415.83461,-138.39584 -437.81636,-358.21339l-2000,-20000c-21.98175,-219.81755 138.39584,-415.83461 358.21339,-437.81636v0c219.81755,-21.98175 415.83461,138.39584 437.81636,358.21339zM58000,20400c-220.9139,0 -400,-179.0861 -400,-400v0c0,-220.9139 179.0861,-400 400,-400h2720c220.9139,0 400,179.0861 400,400v0c0,220.9139 -179.0861,400 -400,400zM59600,40000c0,-220.9139 179.0861,-400 400,-400v0c220.9139,0 400,179.0861 400,400v15000c0,220.9139 -179.0861,400 -400,400v0c-220.9139,0 -400,-179.0861 -400,-400zM60141.96607,55373.9594c-206.53208,78.4057 -437.51978,-25.46126 -515.92547,-231.99333v0c-78.4057,-206.53208 25.46126,-437.51978 231.99333,-515.92547l1080,-410c206.53208,-78.4057 437.51978,25.46126 515.92547,231.99333v0c78.4057,206.53208 -25.46126,437.51978 -231.99333,515.92547z" fill="#303f9f" stroke="none" stroke-width="1"/><path d="M49280,40400c-220.9139,0 -400,-179.0861 -400,-400v0c0,-220.9139 179.0861,-400 400,-400h10720c220.9139,0 400,179.0861 400,400v0c0,220.9139 -179.0861,400 -400,400zM60398.01488,39960.19851c21.98175,219.81755 -138.39584,415.83461 -358.21339,437.81636v0c-219.81755,21.98175 -415.83461,-138.39584 -437.81636,-358.21339l-2000,-20000c-21.98175,-219.81755 138.39584,-415.83461 358.21339,-437.81636v0c219.81755,-21.98175 415.83461,138.39584 437.81636,358.21339zM58000,20400c-220.9139,0 -400,-179.0861 -400,-400v0c0,-220.9139 179.0861,-400 400,-400h2720c220.9139,0 400,179.0861 400,400v0c0,220.9139 -179.0861,400 -400,400zM59600,40000c0,-220.9139 179.0861,-400 400,-400v0c220.9139,0 400,179.0861 400,400v15000c0,220.9139 -179.0861,400 -400,400v0c-220.9139,0 -400,-179.0861 -400,-400zM60141.96607,55373.9594c-206.53208,78.4057 -437.51978,-25.46126 -515.92547,-231.99333v0c-78.4057,-206.53208 25.46126,-437.51978 231.99333,-515.92547l1080,-410c206.53208,-78.4057 437.51978,25.46126 515.92547,231.99333v0c78.4057,206.53208 -25.46126,437.51978 -231.99333,515.92547z" fill="#303f9f" stroke="none" stroke-width="1"/><path d="M20000,39400c-220.9139,0 -400,-179.0861 -400,-400v0c0,-220.9139 179.0861,-400 400,-400h6000c220.9139,0 400,179.0861 400,400v0c0,220.9139 -179.0861,400 -400,400zM20000,29400c-220.9139,0 -400,-179.0861 -400,-400v0c0,-220.9139 179.0861,-400 400,-400h3000c220.9139,0 400,179.0861 400,400v0c0,220.9139 -179.0861,400 -400,400zM22717.15729,29282.84271c-156.20972,-156.20972 -156.20972,-409.47571 0,-565.68542v0c156.20972,-156.20972 409.47571,-156.20972 565.68542,0l3000,3000c156.20972,156.20972 156.20972,409.47571 0,565.68542v0c-156.20972,156.20972 -409.47571,156.20972 -565.68542,0zM25600,32000c0,-220.9139 179.0861,-400 400,-400v0c220.9139,0 400,179.0861 400,400l0,7000c0,220.9139 -179.0861,400 -400,400v0c-220.9139,0 -400,-179.0861 -400,-400zM20000,48400c-220.9139,0 -400,-179.0861 -400,-400v0c0,-220.9139 179.0861,-400 400,-400h4000c220.9139,0 400,179.0861 400,400v0c0,220.9139 -179.0861,400 -400,400zM24282.84271,48282.84271c-156.20972,156.20972 -409.47571,156.20972 -565.68542,0v0c-156.20972,-156.20972 -156.20972,-409.47571 0,-565.68542l2000,-2000c156.20972,-156.20972 409.47571,-156.20972 565.68542,0v0c156.20972,156.20972 156.20972,409.47571 0,565.68542zM26400,46000c0,220.9139 -179.0861,400 -400,400v0c-220.9139,0 -400,-179.0861 -400,-400v-7000c0,-220.9139 179.0861,-400 400,-400v0c220.9139,0 400,179.0861 400,400zM26000,39400c-220.9139,0 -400,-179.0861 -400,-400v0c0,-220.9139 179.0861,-400 400,-400h5000c220.9139,0 400,179.0861 400,400v0c0,220.9139 -179.0861,400 -400,400zM30959.06381,39397.89977c-219.75398,-22.60843 -379.57201,-219.08199 -356.96358,-438.83596v0c22.60843,-219.75398 219.08199,-379.57201 438.83596,-356.96358l9720,1000c219.75398,22.60843 379.57201,219.08199 356.96358,438.83596v0c-22.60843,219.75398 -219.08199,379.57201 -438.83596,356.96358z" fill="#303f9f" stroke="none" stroke-width="1"/><path d="M20000,39400c-220.9139,0 -400,-179.0861 -400,-400v0c0,-220.9139 179.0861,-400 400,-400h6000c220.9139,0 400,179.0861 400,400v0c0,220.9139 -179.0861,400 -400,400zM20000,29400c-220.9139,0 -400,-179.0861 -400,-400v0c0,-220.9139 179.0861,-400 400,-400h3000c220.9139,0 400,179.0861 400,400v0c0,220.9139 -179.0861,400 -400,400zM22717.15729,29282.84271c-156.20972,-156.20972 -156.20972,-409.47571 0,-565.68542v0c156.20972,-156.20972 409.47571,-156.20972 565.68542,0l3000,3000c156.20972,156.20972 156.20972,409.47571 0,565.68542v0c-156.20972,156.20972 -409.47571,156.20972 -565.68542,0zM25600,32000c0,-220.9139 179.0861,-400 400,-400v0c220.9139,0 400,179.0861 400,400l0,7000c0,220.9139 -179.0861,400 -400,400v0c-220.9139,0 -400,-179.0861 -400,-400zM20000,48400c-220.9139,0 -400,-179.0861 -400,-400v0c0,-220.9139 179.0861,-400 400,-400h4000c220.9139,0 400,179.0861 400,400v0c0,220.9139 -179.0861,400 -400,400zM24282.84271,48282.84271c-156.20972,156.20972 -409.47571,156.20972 -565.68542,0v0c-156.20972,-156.20972 -156.20972,-409.47571 0,-565.68542l2000,-2000c156.20972,-156.20972 409.47571,-156.20972 565.68542,0v0c156.20972,156.20972 156.20972,409.47571 0,565.68542zM26400,46000c0,220.9139 -179.0861,400 -400,400v0c-220.9139,0 -400,-179.0861 -400,-400v-7000c0,-220.9139 179.0861,-400 400,-400v0c220.9139,0 400,179.0861 400,400zM26000,39400c-220.9139,0 -400,-179.0861 -400,-400v0c0,-220.9139 179.0861,-400 400,-400h5000c220.9139,0 400,179.0861 400,400v0c0,220.9139 -179.0861,400 -400,400zM30959.06381,39397.89977c-219.75398,-22.60843 -379.57201,-219.08199 -356.96358,-438.83596v0c22.60843,-219.75398 219.08199,-379.57201 438.83596,-356.96358l9720,1000c219.75398,22.60843 379.57201,219.08199 356.96358,438.83596v0c-22.60843,219.75398 -219.08199,379.57201 -438.83596,356.96358z" fill="#303f9f" stroke="none" stroke-width="1"/><path d="M20000,39400c-220.9139,0 -400,-179.0861 -400,-400v0c0,-220.9139 179.0861,-400 400,-400h6000c220.9139,0 400,179.0861 400,400v0c0,220.9139 -179.0861,400 -400,400zM20000,29400c-220.9139,0 -400,-179.0861 -400,-400v0c0,-220.9139 179.0861,-400 400,-400h3000c220.9139,0 400,179.0861 400,400v0c0,220.9139 -179.0861,400 -400,400zM22717.15729,29282.84271c-156.20972,-156.20972 -156.20972,-409.47571 0,-565.68542v0c156.20972,-156.20972 409.47571,-156.20972 565.68542,0l3000,3000c156.20972,156.20972 156.20972,409.47571 0,565.68542v0c-156.20972,156.20972 -409.47571,156.20972 -565.68542,0zM25600,32000c0,-220.9139 179.0861,-400 400,-400v0c220.9139,0 400,179.0861 400,400l0,7000c0,220.9139 -179.0861,400 -400,400v0c-220.9139,0 -400,-179.0861 -400,-400zM20000,48400c-220.9139,0 -400,-179.0861 -400,-400v0c0,-220.9139 179.0861,-400 400,-400h4000c220.9139,0 400,179.0861 400,400v0c0,220.9139 -179.0861,400 -400,400zM24282.84271,48282.84271c-156.20972,156.20972 -409.47571,156.20972 -565.68542,0v0c-156.20972,-156.20972 -156.20972,-409.47571 0,-565.68542l2000,-2000c156.20972,-156.20972 409.47571,-156.20972 565.68542,0v0c156.20972,156.20972 156.20972,409.47571 0,565.68542zM26400,46000c0,220.9139 -179.0861,400 -400,400v0c-220.9139,0 -400,-179.0861 -400,-400v-7000c0,-220.9139 179.0861,-400 400,-400v0c220.9139,0 400,179.0861 400,400zM26000,39400c-220.9139,0 -400,-179.0861 -400,-400v0c0,-220.9139 179.0861,-400 400,-400h5000c220.9139,0 400,179.0861 400,400v0c0,220.9139 -179.0861,400 -400,400zM30959.06381,39397.89977c-219.75398,-22.60843 -379.57201,-219.08199 -356.96358,-438.83596v0c22.60843,-219.75398 219.08199,-379.57201 438.83596,-356.96358l9720,1000c219.75398,22.60843 379.57201,219.08199 356.96358,438.83596v0c-22.60843,219.75398 -219.08199,379.57201 -438.83596,356.96358z" fill="#303f9f" stroke="none" stroke-width="1"/><path d="M20000,39400c-220.9139,0 -400,-179.0861 -400,-400v0c0,-220.9139 179.0861,-400 400,-400h6000c220.9139,0 400,179.0861 400,400v0c0,220.9139 -179.0861,400 -400,400zM20000,29400c-220.9139,0 -400,-179.0861 -400,-400v0c0,-220.9139 179.0861,-400 400,-400h3000c220.9139,0 400,179.0861 400,400v0c0,220.9139 -179.0861,400 -400,400zM22717.15729,29282.84271c-156.20972,-156.20972 -156.20972,-409.47571 0,-565.68542v0c156.20972,-156.20972 409.47571,-156.20972 565.68542,0l3000,3000c156.20972,156.20972 156.20972,409.47571 0,565.68542v0c-156.20972,156.20972 -409.47571,156.20972 -565.68542,0zM25600,32000c0,-220.9139 179.0861,-400 400,-400v0c220.9139,0 400,179.0861 400,400l0,7000c0,220.9139 -179.0861,400 -400,400v0c-220.9139,0 -400,-179.0861 -400,-400zM20000,48400c-220.9139,0 -400,-179.0861 -400,-400v0c0,-220.9139 179.0861,-400 400,-400h4000c220.9139,0 400,179.0861 400,400v0c0,220.9139 -179.0861,400 -400,400zM24282.84271,48282.84271c-156.20972,156.20972 -409.47571,156.20972 -565.68542,0v0c-156.20972,-156.20972 -156.20972,-409.47571 0,-565.68542l2000,-2000c156.20972,-156.20972 409.47571,-156.20972 565.68542,0v0c156.20972,156.20972 156.20972,409.47571 0,565.68542zM26400,46000c0,220.9139 -179.0861,400 -400,400v0c-220.9139,0 -400,-179.0861 -400,-400v-7000c0,-220.9139 179.0861,-400 400,-400v0c220.9139,0 400,179.0861 400,400zM26000,39400c-220.9139,0 -400,-179.0861 -400,-400v0c0,-220.9139 179.0861,-400 400,-400h5000c220.9139,0 400,179.0861 400,400v0c0,220.9139 -179.0861,400 -400,400zM30959.06381,39397.89977c-219.75398,-22.60843 -379.57201,-219.08199 -356.96358,-438.83596v0c22.60843,-219.75398 219.08199,-379.57201 438.83596,-356.96358l9720,1000c219.75398,22.60843 379.57201,219.08199 356.96358,438.83596v0c-22.60843,219.75398 -219.08199,379.57201 -438.83596,356.96358z" fill="#303f9f" stroke="none" stroke-width="1"/><path d="M20000,20400c-220.9139,0 -400,-179.0861 -400,-400v0c0,-220.9139 179.0861,-400 400,-400h7000c220.9139,0 400,179.0861 400,400v0c0,220.9139 -179.0861,400 -400,400zM26687.65248,20249.87802c-138.00382,-172.50477 -110.03527,-424.22172 62.4695,-562.22554v0c172.50477,-138.00382 424.22172,-110.03527 562.22554,62.4695l4000,5000c138.00382,172.50477 110.03527,424.22172 -62.4695,562.22554v0c-172.50477,138.00382 -424.22172,110.03527 -562.22554,-62.4695zM30600,25000c0,-220.9139 179.0861,-400 400,-400v0c220.9139,0 400,179.0861 400,400v14000c0,220.9139 -179.0861,400 -400,400v0c-220.9139,0 -400,-179.0861 -400,-400zM20000,59400c-220.9139,0 -400,-179.0861 -400,-400v0c0,-220.9139 179.0861,-400 400,-400h7000c220.9139,0 400,179.0861 400,400v0c0,220.9139 -179.0861,400 -400,400zM27282.84271,59282.84271c-156.20972,156.20972 -409.47571,156.20972 -565.68542,0v0c-156.20972,-156.20972 -156.20972,-409.47571 0,-565.68542l4000,-4000c156.20972,-156.20972 409.47571,-156.20972 565.68542,0v0c156.20972,156.20972 156.20972,409.47571 0,565.68542zM31400,55000c0,220.9139 -179.0861,400 -400,400v0c-220.9139,0 -400,-179.0861 -400,-400v-16000c0,-220.9139 179.0861,-400 400,-400v0c220.9139,0 400,179.0861 400,400z" fill="#303f9f" stroke="none" stroke-width="1"/><path d="M20000,20400c-220.9139,0 -400,-179.0861 -400,-400v0c0,-220.9139 179.0861,-400 400,-400h7000c220.9139,0 400,179.0861 400,400v0c0,220.9139 -179.0861,400 -400,400zM26687.65248,20249.87802c-138.00382,-172.50477 -110.03527,-424.22172 62.4695,-562.22554v0c172.50477,-138.00382 424.22172,-110.03527 562.22554,62.4695l4000,5000c138.00382,172.50477 110.03527,424.22172 -62.4695,562.22554v0c-172.50477,138.00382 -424.22172,110.03527 -562.22554,-62.4695zM30600,25000c0,-220.9139 179.0861,-400 400,-400v0c220.9139,0 400,179.0861 400,400v14000c0,220.9139 -179.0861,400 -400,400v0c-220.9139,0 -400,-179.0861 -400,-400zM20000,59400c-220.9139,0 -400,-179.0861 -400,-400v0c0,-220.9139 179.0861,-400 400,-400h7000c220.9139,0 400,179.0861 400,400v0c0,220.9139 -179.0861,400 -400,400zM27282.84271,59282.84271c-156.20972,156.20972 -409.47571,156.20972 -565.68542,0v0c-156.20972,-156.20972 -156.20972,-409.47571 0,-565.68542l4000,-4000c156.20972,-156.20972 409.47571,-156.20972 565.68542,0v0c156.20972,156.20972 156.20972,409.47571 0,565.68542zM31400,55000c0,220.9139 -179.0861,400 -400,400v0c-220.9139,0 -400,-179.0861 -400,-400v-16000c0,-220.9139 179.0861,-400 400,-400v0c220.9139,0 400,179.0861 400,400z" fill="#303f9f" stroke="none" stroke-width="1"/><path d="M81175,39564.5h7650v871h-7650z" fill="#303f9f" stroke="none" stroke-width="1"/><path d="M61175,19564.5h7650v871h-7650z" fill="#303f9f" stroke="none" stroke-width="1"/><path d="M41175,39564.5h7650v871h-7650z" fill="#303f9f" stroke="none" stroke-width="1"/><path d="M69200,50000h800v4990h-800zM67170,50000h2830v800h-2830zM67170,50000h800v9180h-800zM65140,58380h2830v800h-2830zM65140,50000h800v9180h-800zM63110,50000h2830v800h-2830zM63110,50000h800v9180h-800zM61080,58380h2830v800h-2830zM61080,54190h800v4590h-800z" fill="#303f9f" stroke="none" stroke-width="1"/><path d="M119300,60000c0,-386.59932 313.40068,-700 700,-700c386.59932,0 700,313.40068 700,700c0,386.59932 -313.40068,700 -700,700c-386.59932,0 -700,-313.40068 -700,-700z" fill="#303f9f" stroke="none" stroke-width="1"/><path d="M119300,40000c0,-386.59932 313.40068,-700 700,-700c386.59932,0 700,313.40068 700,700c0,386.59932 -313.40068,700 -700,700c-386.59932,0 -700,-313.40068 -700,-700z" fill="#303f9f" stroke="none" stroke-width="1"/><path d="M119300,20000c0,-386.59932 313.40068,-700 700,-700c386.59932,0 700,313.40068 700,700c0,386.59932 -313.40068,700 -700,700c-386.59932,0 -700,-313.40068 -700,-700z" fill="#303f9f" stroke="none" stroke-width="1"/><path d="M19300,59000c0,-386.59932 313.40068,-700 700,-700c386.59932,0 700,313.40068 700,700c0,386.59932 -313.40068,700 -700,700c-386.59932,0 -700,-313.40068 -700,-700z" fill="#303f9f" stroke="none" stroke-width="1"/><path d="M19300,48000c0,-386.59932 313.40068,-700 700,-700c386.59932,0 700,313.40068 700,700c0,386.59932 -313.40068,700 -700,700c-386.59932,0 -700,-313.40068 -700,-700z" fill="#303f9f" stroke="none" stroke-width="1"/><path d="M19300,39000c0,-386.59932 313.40068,-700 700,-700c386.59932,0 700,313.40068 700,700c0,386.59932 -313.40068,700 -700,700c-386.59932,0 -700,-313.40068 -700,-700z" fill="#303f9f" stroke="none" stroke-width="1"/><path d="M19300,29000c0,-386.59932 313.40068,-700 700,-700c386.59932,0 700,313.40068 700,700c0,386.59932 -313.40068,700 -700,700c-386.59932,0 -700,-313.40068 -700,-700z" fill="#303f9f" stroke="none" stroke-width="1"/><path d="M19300,20000c0,-386.59932 313.40068,-700 700,-700c386.59932,0 700,313.40068 700,700c0,386.59932 -313.40068,700 -700,700c-386.59932,0 -700,-313.40068 -700,-700z" fill="#303f9f" stroke="none" stroke-width="1"/></g></svg></svg>